<?xml version="1.0" encoding="UTF-8" standalone="no"?>
<!DOCTYPE svg PUBLIC "-//W3C//DTD SVG 1.1//EN" "http://www.w3.org/Graphics/SVG/1.1/DTD/svg11.dtd">
<svg width="100%" height="100%" viewBox="0 0 675 209" version="1.1" xmlns="http://www.w3.org/2000/svg" xmlns:xlink="http://www.w3.org/1999/xlink" xml:space="preserve" xmlns:serif="http://www.serif.com/" style="fill-rule:evenodd;clip-rule:evenodd;stroke-linejoin:round;stroke-miterlimit:2;">
    <g transform="matrix(0.98679,0,0,0.888035,-116.626,0)">
        <rect id="Artboard1" x="118.187" y="0" width="683.445" height="234.776" style="fill:none;"/>
        <g id="Artboard11" serif:id="Artboard1">
            <g id="_001-sword.svg" serif:id="001-sword.svg" transform="matrix(-0.716573,0.79626,-0.716573,-0.79626,806.237,116.232)">
                <path d="M496.963,429.921L490.259,423.218C480.508,413.462 465.402,412.302 454.357,419.686L403.972,369.301L433.569,339.704C444.662,328.616 444.662,310.569 433.569,299.481L420.157,286.074C416.454,282.37 410.454,282.37 406.75,286.074L376.819,316.005L73.074,12.259C71.296,10.481 68.884,9.481 66.37,9.481L18.963,9.481C13.727,9.481 9.481,13.727 9.481,18.963L9.481,66.37C9.481,68.884 10.481,71.296 12.259,73.074L316.005,376.819L286.074,406.75C282.37,410.454 282.37,416.454 286.074,420.157L299.481,433.569C305.028,439.116 312.31,441.889 319.593,441.889C326.875,441.889 334.157,439.116 339.704,433.569L369.301,403.972L419.673,454.344C416.56,458.984 414.884,464.437 414.884,470.148C414.884,477.745 417.843,484.889 423.218,490.259L429.921,496.963C433.505,500.546 438.264,502.519 443.329,502.519C448.398,502.519 453.162,500.546 456.736,496.963L496.963,456.741C504.356,449.347 504.356,437.315 496.963,429.921ZM432.697,440.553L419.961,427.817L427.817,419.961L440.553,432.697L432.697,440.553ZM400.998,408.854L408.854,400.998L414.41,406.553L406.553,414.41L400.998,408.854ZM363.412,329.412L353.116,339.708L41.852,28.444L62.444,28.444L363.412,329.412ZM28.444,62.444L28.444,41.852L339.708,353.116L329.412,363.412L28.444,62.444ZM326.296,420.162C322.602,423.856 316.583,423.856 312.889,420.162L306.185,413.454L413.454,306.185L420.162,312.889C423.856,316.583 423.856,322.602 420.162,326.296L326.296,420.162ZM390.565,382.708L395.447,387.59L387.59,395.447L382.708,390.565L390.565,382.708ZM443.329,483.556L436.625,476.847C434.833,475.06 433.847,472.681 433.847,470.148C433.847,467.616 434.833,465.236 436.625,463.444L463.44,436.625C465.287,434.778 467.718,433.852 470.148,433.852C472.574,433.852 475.005,434.778 476.852,436.625L483.565,443.324L443.329,483.556Z" style="fill-rule:nonzero;"/>
            </g>
        </g>
    </g>
</svg>
