<?xml version="1.0" encoding="UTF-8" standalone="no"?>
<!DOCTYPE svg PUBLIC "-//W3C//DTD SVG 1.1//EN" "http://www.w3.org/Graphics/SVG/1.1/DTD/svg11.dtd">
<svg width="100%" height="100%" viewBox="0 0 195 195" version="1.1" xmlns="http://www.w3.org/2000/svg" xmlns:xlink="http://www.w3.org/1999/xlink" xml:space="preserve" xmlns:serif="http://www.serif.com/" style="fill-rule:evenodd;clip-rule:evenodd;stroke-linejoin:round;stroke-miterlimit:2;">
    <g>
        <g>
            <path d="M62.222,20.573L4.195,6.919C3.181,6.678 2.111,6.919 1.294,7.566C0.476,8.215 0,9.199 0,10.242L0,153.602C0,155.186 1.091,156.563 2.632,156.925L60.659,170.578C60.917,170.638 61.181,170.668 61.441,170.668C62.202,170.668 62.951,170.412 63.561,169.931C64.378,169.283 64.855,168.298 64.855,167.255L64.855,23.896C64.853,22.312 63.763,20.934 62.222,20.573ZM58.027,162.946L6.827,150.899L6.827,14.552L58.027,26.599L58.027,162.946Z" style="fill-rule:nonzero;"/>
        </g>
    </g>
    <g transform="matrix(0.991335,0,0,1,116.538,0.292826)">
        <g>
            <path d="M62.222,20.573L4.195,6.919C3.181,6.678 2.111,6.919 1.294,7.566C0.476,8.215 0,9.199 0,10.242L0,153.602C0,155.186 1.091,156.563 2.632,156.925L60.659,170.578C60.917,170.638 61.181,170.668 61.441,170.668C62.202,170.668 62.951,170.412 63.561,169.931C64.378,169.283 64.855,168.298 64.855,167.255L64.855,23.896C64.853,22.312 63.763,20.934 62.222,20.573ZM58.027,162.946L6.827,150.899L6.827,14.552L58.027,26.599L58.027,162.946Z" style="fill-rule:nonzero;"/>
        </g>
    </g>
    <g>
        <g>
            <path d="M178.275,20.571L120.248,6.918C119.231,6.677 118.164,6.918 117.347,7.565C116.529,8.213 116.053,9.198 116.053,10.241L116.053,153.6C116.053,155.184 117.144,156.561 118.685,156.923L139.511,161.823C139.774,161.884 140.037,161.915 140.296,161.915C141.844,161.915 143.247,160.855 143.615,159.28C144.047,157.445 142.908,155.607 141.074,155.175L122.879,150.895L122.879,14.548L174.079,26.595L174.079,136.143C174.079,138.027 175.608,139.556 177.492,139.556C179.376,139.556 180.905,138.027 180.905,136.143L180.905,23.894C180.907,22.31 179.816,20.933 178.275,20.571Z" style="fill-rule:nonzero;"/>
        </g>
    </g>
    <g>
        <g>
            <path d="M121.586,7.566C120.768,6.919 119.7,6.679 118.685,6.919L60.658,20.573C59.117,20.936 58.026,22.312 58.026,23.896L58.026,167.256C58.026,168.299 58.502,169.285 59.32,169.932C59.929,170.415 60.678,170.669 61.44,170.669C61.701,170.669 61.964,170.638 62.222,170.579L120.249,156.926C121.79,156.562 122.881,155.187 122.881,153.603L122.881,10.242C122.88,9.199 122.404,8.213 121.586,7.566ZM116.053,150.899L64.853,162.946L64.853,26.599L116.053,14.552L116.053,150.899Z" style="fill-rule:nonzero;"/>
        </g>
    </g>
    <g transform="matrix(1.84718,0,0,1.84718,-111.282,-95.0791)">
        <g transform="matrix(72,0,0,72,143.835,128.531)">
        </g>
        <text x="80.659px" y="128.531px" style="font-family:'UnifrakturCook-Bold', 'UnifrakturCook';font-weight:700;font-size:72px;stroke:white;stroke-width:0.54px;">W</text>
    </g>
</svg>
